<svg width="24" height="24" viewBox="0 0 24 24" fill="none" xmlns="http://www.w3.org/2000/svg">
<mask id="mask0_1210_87" style="mask-type:alpha" maskUnits="userSpaceOnUse" x="0" y="0" width="24" height="24">
<rect width="24" height="24" fill="#D9D9D9"/>
</mask>
<g mask="url(#mask0_1210_87)">
<path d="M10.9808 14.5H13.0193L12.4635 11.4095C12.7583 11.307 13.0016 11.1263 13.1932 10.8673C13.3849 10.6083 13.4808 10.3192 13.4808 10C13.4808 9.59103 13.3362 9.24203 13.047 8.95303C12.758 8.66386 12.409 8.51928 12 8.51928C11.591 8.51928 11.242 8.66386 10.953 8.95303C10.6638 9.24203 10.5192 9.59103 10.5192 10C10.5192 10.3192 10.6151 10.6083 10.8067 10.8673C10.9984 11.1263 11.2417 11.307 11.5365 11.4095L10.9808 14.5ZM12 20.9615C9.991 20.3654 8.32208 19.1484 6.99325 17.3105C5.66442 15.4727 5 13.4025 5 11.1V5.69228L12 3.07703L19 5.69228V11.1C19 13.4025 18.3356 15.4727 17.0068 17.3105C15.6779 19.1484 14.009 20.3654 12 20.9615Z" fill="#C9F9FF"/>
</g>
</svg>
