<svg width="24" height="24" viewBox="0 0 24 24" fill="none" xmlns="http://www.w3.org/2000/svg">
<mask id="mask0_1210_127" style="mask-type:alpha" maskUnits="userSpaceOnUse" x="0" y="0" width="24" height="24">
<rect width="24" height="24" fill="#D9D9D9"/>
</mask>
<g mask="url(#mask0_1210_127)">
<path d="M11.2692 19H12.7308V16.9193L16 13.65V9.6155C16 9.4615 15.9359 9.32042 15.8077 9.19225C15.6796 9.06408 15.5385 9 15.3845 9H8.6155C8.4615 9 8.32042 9.06408 8.19225 9.19225C8.06408 9.32042 8 9.4615 8 9.6155V13.65L11.2692 16.9193V19ZM10.2692 20V17.3462L7 14.077V9.6155C7 9.168 7.15733 8.78683 7.472 8.472C7.78683 8.15733 8.168 8 8.6155 8H9.84625L9.34625 8.5V4H10.3463V8H13.6538V4H14.6538V8.5L14.1538 8H15.3845C15.832 8 16.2132 8.15733 16.528 8.472C16.8427 8.78683 17 9.168 17 9.6155V14.077L13.7307 17.3462V20H10.2692Z" fill="white"/>
</g>
</svg>
