<svg width="24" height="24" viewBox="0 0 24 24" fill="none" xmlns="http://www.w3.org/2000/svg">
<mask id="mask0_1210_93" style="mask-type:alpha" maskUnits="userSpaceOnUse" x="0" y="0" width="24" height="24">
<rect width="24" height="24" fill="#D9D9D9"/>
</mask>
<g mask="url(#mask0_1210_93)">
<path d="M9 20V18H4.6155C4.15517 18 3.77083 17.8458 3.4625 17.5375C3.15417 17.2292 3 16.8448 3 16.3845V5.6155C3 5.15517 3.15417 4.77083 3.4625 4.4625C3.77083 4.15417 4.15517 4 4.6155 4H19.3845C19.8448 4 20.2292 4.15417 20.5375 4.4625C20.8458 4.77083 21 5.15517 21 5.6155V16.3845C21 16.8448 20.8458 17.2292 20.5375 17.5375C20.2292 17.8458 19.8448 18 19.3845 18H15V20H9ZM4.4155 11L7.0155 8.4L6.30775 7.69225L3 11L6.30775 14.3077L7.0155 13.6L4.4155 11ZM19.5845 11L16.9845 13.6L17.6923 14.3077L21 11L17.6923 7.69225L16.9845 8.4L19.5845 11Z" fill="#B8B3BE"/>
</g>
</svg>
