<svg width="24" height="24" viewBox="0 0 24 24" fill="none" xmlns="http://www.w3.org/2000/svg">
<mask id="mask0_1210_53" style="mask-type:alpha" maskUnits="userSpaceOnUse" x="0" y="0" width="24" height="24">
<rect width="24" height="24" fill="#D9D9D9"/>
</mask>
<g mask="url(#mask0_1210_53)">
<path d="M11.1672 21C10.6237 21 10.1062 20.8871 9.6145 20.6615C9.12283 20.4358 8.71608 20.1076 8.39425 19.677L3.65575 13.4057L3.91925 13.1172C4.08591 12.9339 4.284 12.8217 4.5135 12.7807C4.743 12.7397 4.96158 12.7801 5.16925 12.902L8.19225 14.3922V6.76923C8.19225 6.62756 8.24025 6.50881 8.33625 6.41298C8.43225 6.31714 8.55116 6.26923 8.693 6.26923C8.83483 6.26923 8.9545 6.31714 9.052 6.41298C9.14933 6.50881 9.198 6.62756 9.198 6.76923V11.5385H16.577C17.25 11.5385 17.8221 11.7741 18.2932 12.2452C18.7644 12.7164 19 13.2885 19 13.9615V17.4987C19 18.4714 18.6554 19.2981 17.9662 19.9787C17.2771 20.6596 16.4486 21 15.4807 21H11.1672ZM5.23275 8.76923C5.05458 8.46673 4.91991 8.14698 4.82875 7.80998C4.73775 7.47298 4.69225 7.12606 4.69225 6.76923C4.69225 5.65506 5.08041 4.70989 5.85675 3.93372C6.63308 3.15739 7.57825 2.76923 8.69225 2.76923C9.80641 2.76923 10.7517 3.15739 11.528 3.93372C12.3042 4.70989 12.6922 5.65423 12.6922 6.76673C12.6922 7.12856 12.6467 7.47714 12.5557 7.81248C12.4647 8.14781 12.3302 8.46673 12.152 8.76923L11.2922 8.26923C11.4256 8.03589 11.5256 7.79839 11.5922 7.55673C11.6589 7.31506 11.6922 7.05256 11.6922 6.76923C11.6922 5.93589 11.4006 5.22756 10.8172 4.64423C10.2339 4.06089 9.52558 3.76923 8.69225 3.76923C7.85891 3.76923 7.15058 4.06089 6.56725 4.64423C5.98391 5.22756 5.69225 5.93589 5.69225 6.76923C5.69225 7.05256 5.72558 7.31506 5.79225 7.55673C5.85891 7.79839 5.95891 8.03589 6.09225 8.26923L5.23275 8.76923Z" fill="#1C1B1F"/>
</g>
</svg>
